<svg xmlns="http://www.w3.org/2000/svg" width="18" height="18" viewBox="0 0 18 18" fill="none">
    <path d="M8.16935 16.125C7.91358 16.125 7.69267 16.0401 7.50662 15.8704C7.32057 15.7007 7.20735 15.4918 7.16696 15.2437L6.98379 13.8404C6.78283 13.773 6.57682 13.6788 6.36575 13.5577C6.15469 13.4365 5.96599 13.3067 5.79964 13.1682L4.50011 13.7206C4.26454 13.8245 4.02776 13.8346 3.78979 13.7509C3.55181 13.6673 3.36696 13.5153 3.23524 13.2952L2.39004 11.8298C2.25832 11.6096 2.22034 11.3767 2.2761 11.131C2.33187 10.8853 2.45975 10.6827 2.65974 10.5231L3.78332 9.67931C3.766 9.56778 3.75374 9.45576 3.74653 9.34326C3.73932 9.23076 3.73571 9.11874 3.73571 9.0072C3.73571 8.90046 3.73932 8.79204 3.74653 8.68194C3.75374 8.57184 3.766 8.45141 3.78332 8.32065L2.65974 7.47688C2.45975 7.31727 2.33307 7.11343 2.2797 6.86537C2.22634 6.61729 2.26552 6.38316 2.39726 6.16298L3.23524 4.71923C3.36696 4.50385 3.55181 4.35313 3.78979 4.26707C4.02776 4.18102 4.26454 4.18991 4.50011 4.29375L5.79242 4.83896C5.97319 4.69569 6.16622 4.56468 6.37151 4.44593C6.57681 4.32716 6.7785 4.23173 6.97657 4.15961L7.16696 2.75623C7.20735 2.50817 7.32057 2.29928 7.50662 2.12957C7.69267 1.95986 7.91358 1.875 8.16935 1.875H9.83087C10.0866 1.875 10.3076 1.95986 10.4936 2.12957C10.6797 2.29928 10.7929 2.50817 10.8333 2.75623L11.0164 4.16683C11.2414 4.24856 11.445 4.34399 11.6273 4.45312C11.8095 4.56226 11.9934 4.69088 12.1789 4.83896L13.5073 4.29375C13.7429 4.18991 13.9797 4.18102 14.2177 4.26707C14.4556 4.35313 14.6405 4.50385 14.7722 4.71923L15.6102 6.17019C15.7419 6.39038 15.7799 6.62331 15.7241 6.86897C15.6683 7.11463 15.5405 7.31727 15.3405 7.47688L14.1881 8.34227C14.215 8.46343 14.2297 8.57666 14.2321 8.68194C14.2345 8.78723 14.2357 8.89324 14.2357 8.99998C14.2357 9.10191 14.2333 9.20551 14.2285 9.3108C14.2236 9.41609 14.2063 9.53653 14.1765 9.67211L15.3073 10.5231C15.5073 10.6827 15.6364 10.8853 15.6946 11.131C15.7527 11.3767 15.7159 11.6096 15.5842 11.8298L14.7347 13.2879C14.603 13.5081 14.4169 13.6601 14.1765 13.7437C13.9362 13.8274 13.6982 13.8173 13.4626 13.7134L12.1789 13.161C11.9934 13.3091 11.8039 13.4401 11.6107 13.554C11.4174 13.668 11.2193 13.761 11.0164 13.8331L10.8333 15.2437C10.7929 15.4918 10.6797 15.7007 10.4936 15.8704C10.3076 16.0401 10.0866 16.125 9.83087 16.125H8.16935ZM9.00875 11.25C9.63279 11.25 10.1638 11.031 10.6018 10.593C11.0397 10.155 11.2587 9.62401 11.2587 8.99998C11.2587 8.37596 11.0397 7.84495 10.6018 7.40696C10.1638 6.96899 9.63279 6.75 9.00875 6.75C8.37704 6.75 7.84412 6.96899 7.40998 7.40696C6.97585 7.84495 6.75879 8.37596 6.75879 8.99998C6.75879 9.62401 6.97585 10.155 7.40998 10.593C7.84412 11.031 8.37704 11.25 9.00875 11.25Z" fill="#71717A" />
</svg>