<svg xmlns="http://www.w3.org/2000/svg" width="24" height="24" viewBox="0 0 24 24" fill="none">
  <path d="M13.3 16.85C13.1 16.65 13.004 16.4083 13.012 16.125C13.0207 15.8417 13.125 15.6 13.325 15.4L16.15 12.575H5C4.71667 12.575 4.479 12.479 4.287 12.287C4.09567 12.0957 4 11.8583 4 11.575C4 11.2917 4.09567 11.054 4.287 10.862C4.479 10.6707 4.71667 10.575 5 10.575H16.15L13.3 7.725C13.1 7.525 13 7.28733 13 7.012C13 6.73733 13.1 6.5 13.3 6.3C13.5 6.1 13.7377 6 14.013 6C14.2877 6 14.525 6.1 14.725 6.3L19.3 10.875C19.4 10.975 19.471 11.0833 19.513 11.2C19.5543 11.3167 19.575 11.4417 19.575 11.575C19.575 11.7083 19.5543 11.8333 19.513 11.95C19.471 12.0667 19.4 12.175 19.3 12.275L14.7 16.875C14.5167 17.0583 14.2877 17.15 14.013 17.15C13.7377 17.15 13.5 17.05 13.3 16.85Z" fill="black"/>
</svg>