 <svg
            xmlns="http://www.w3.org/2000/svg"
            width="18"
            height="18"
            viewBox="0 0 18 18"
            fill="none"
          >
            <path
              d="M10.6145 6.74998C10.4218 6.74998 10.2608 6.68532 10.1315 6.55599C10.0022 6.42667 9.9375 6.26418 9.9375 6.06853V3.30645C9.9375 3.11081 10.0027 2.94833 10.133 2.81901C10.2634 2.68967 10.4249 2.625 10.6176 2.625H14.698C14.8906 2.625 15.0516 2.68967 15.181 2.81901C15.3103 2.94833 15.375 3.11081 15.375 3.30645V6.06853C15.375 6.26418 15.3098 6.42667 15.1794 6.55599C15.0491 6.68532 14.8876 6.74998 14.6949 6.74998H10.6145ZM3.30201 9.37496C3.10933 9.37496 2.94833 9.31027 2.81901 9.18088C2.68967 9.05151 2.625 8.89119 2.625 8.69994V3.29987C2.625 3.10862 2.69017 2.94833 2.82052 2.81901C2.95087 2.68967 3.11239 2.625 3.30508 2.625H7.38546C7.57814 2.625 7.73915 2.68969 7.86848 2.81908C7.9978 2.94846 8.06246 3.10877 8.06246 3.30002V8.70009C8.06246 8.89134 7.99729 9.05163 7.86696 9.18096C7.73661 9.31029 7.57509 9.37496 7.3824 9.37496H3.30201ZM10.6145 15.375C10.4218 15.375 10.2608 15.3103 10.1315 15.1809C10.0022 15.0515 9.9375 14.8912 9.9375 14.6999V9.29987C9.9375 9.10862 10.0027 8.94833 10.133 8.81901C10.2634 8.68967 10.4249 8.625 10.6176 8.625H14.698C14.8906 8.625 15.0516 8.68969 15.181 8.81908C15.3103 8.94846 15.375 9.10877 15.375 9.30002V14.7001C15.375 14.8913 15.3098 15.0516 15.1794 15.181C15.0491 15.3103 14.8876 15.375 14.6949 15.375H10.6145ZM3.30201 15.375C3.10933 15.375 2.94833 15.3103 2.81901 15.181C2.68967 15.0516 2.625 14.8892 2.625 14.6935V11.9314C2.625 11.7358 2.69017 11.5733 2.82052 11.444C2.95087 11.3146 3.11239 11.25 3.30508 11.25H7.38546C7.57814 11.25 7.73915 11.3146 7.86848 11.444C7.9978 11.5733 8.06246 11.7358 8.06246 11.9314V14.6935C8.06246 14.8892 7.99729 15.0516 7.86696 15.181C7.73661 15.3103 7.57509 15.375 7.3824 15.375H3.30201Z"
              fill="black"
            />
          </svg>