<svg
                    xmlns="http://www.w3.org/2000/svg"
                    width="25"
                    height="25"
                    viewBox="0 0 25 25"
                    fill="none"
                  >
                    <path
                      d="M18.2937 13.7133H17.6137L15.6137 15.7133H17.5237L19.2937 17.7133H5.2937L7.0737 15.7133H9.1237L7.1237 13.7133H6.2937L3.2937 16.7133V20.7133C3.2937 21.2437 3.50441 21.7524 3.87949 22.1275C4.25456 22.5026 4.76327 22.7133 5.2937 22.7133H19.2937C19.8241 22.7133 20.3328 22.5026 20.7079 22.1275C21.083 21.7524 21.2937 21.2437 21.2937 20.7133V16.7133L18.2937 13.7133ZM17.2937 8.6633L12.3437 13.6133L8.7937 10.0733L13.7537 5.1233L17.2937 8.6633ZM13.0537 3.0033L6.6837 9.3733C6.2937 9.7633 6.2937 10.3933 6.6837 10.7833L11.6337 15.7133C12.0237 16.1233 12.6537 16.1233 13.0437 15.7133L19.4037 9.3733C19.7937 8.9833 19.7937 8.3533 19.4037 7.9633L14.4537 3.0133C14.0737 2.6133 13.4437 2.6133 13.0537 3.0033Z"
                      fill="#FF5555"
                    />
                  </svg>